<svg xmlns="http://www.w3.org/2000/svg" id="cart" width="32" height="32" viewBox="0 0 32 32"><rect id="cart_Background_" data-name="cart (Background)" width="32" height="32" fill="none"></rect><path id="cart-2" data-name="cart" d="M23.627,25a1.5,1.5,0,1,1,1.5-1.5A1.5,1.5,0,0,1,23.627,25ZM7.5,25A1.5,1.5,0,1,1,9,23.5,1.5,1.5,0,0,1,7.5,25ZM26,20H7.508a1.6,1.6,0,0,1-1.579-1.337L3.154,2H0V0H3.492A1.6,1.6,0,0,1,5.071,1.337L5.513,4H26.149A1.6,1.6,0,0,1,27.7,5.989l-1.7,6.8A1.6,1.6,0,0,1,24.448,14H7.18l.668,4H26v2ZM5.846,6l1,6H24.136l1.5-6Z" transform="translate(2 4)" fill="#55b7b3"></path></svg>