<?xml version="1.0" encoding="UTF-8"?>
<!-- Generator: Adobe Illustrator 27.2.0, SVG Export Plug-In . SVG Version: 6.00 Build 0)  -->
<svg xmlns="http://www.w3.org/2000/svg" xmlns:xlink="http://www.w3.org/1999/xlink" version="1.1" id="Layer_1" x="0px" y="0px" viewBox="0 0 200.5 53.1" style="enable-background:new 0 0 200.5 53.1;" xml:space="preserve">
<style type="text/css">
	.st0{fill-rule:evenodd;clip-rule:evenodd;fill:#D8EEE7;}
	.st1{fill:#FEFEFE;}
</style>
<path class="st0" d="M46.3,43.5c-1-1.4-1.6-3-2.2-4.7c-1.1-3.3-1.6-7-3.5-10c-1-1.5-2.2-2.1-2.9-3.7c2.8-1,2.5-5.4-0.8-5.5  c2.7,0.1,7.9,0.1,9.9-2.2c1.5-1.7,1-5.3-0.1-7.1c-1.2-2.1-4.6-2.6-6.7-2.8c-6.3-0.7-12.8,0.9-19-0.5C21.7,1,32,2.5,36.9,3.7  c1.9,0.5,3.9,2.4,5,0.8c-5.5-3.9-19.8-7.5-25.1-0.8c-2.9,3.6-3.9,12.3,0.3,16c-0.5,2.4,0.8,2.5,1.1,3.7c-0.2-0.7-0.9,1.3,0,1.3  C11.6,25.2,4.3,24.9,0,27.6c1.1,8.3,2,16.8,9.4,18.9c-4.4,2.9,1.4,5.1,4.4,5.8c7.7,1.8,13.9,0.5,22-0.3c3.4-0.3,8.7,0.2,11.6-1.8  C51.1,47.7,47.8,45.7,46.3,43.5 M21,19.2c4.7,1,9.2,3.7,11,6.8c-3.4-0.9-7.5-1.2-12-1C19.4,22.2,21.4,21.9,21,19.2 M2.5,27.9  c0-1,6.5-1.8,14.5-1.8c0.5,0,0.9,0,1.3,0v3.6c-0.4,0-0.9,0-1.3,0C9,29.7,2.5,28.9,2.5,27.9 M19.4,29.7v-3.6  c6.9,0.1,12.1,0.9,12.1,1.8C31.5,28.8,26.3,29.5,19.4,29.7 M29.9,43c2.7-3.4,3.4-8.8,3.9-14.4c0.4,0,0.7-0.2,0.8-0.5  C38,32.1,38,44,29.9,43 M35.4,20.8c1.3,0,2.3,0.3,3.1,0.8C38.9,25.7,34.4,24.6,35.4,20.8"></path>
<g>
	<path class="st1" d="M93.2,19.3c-0.4-0.2-0.8-0.5-1.1-0.7c-1.9-1.1-3.5-1.2-4.4-1.2c-0.9,0-2.9,0.1-4.8,1.8   c-1.8,1.6-2.7,4.2-2.7,6.5c0,0.6,0.1,1.9,0.7,3.5c1.2,2.9,3.9,4.8,7.1,4.8c1.5,0,3.3-0.5,4.5-1.4c0.4-0.3,0.7-0.6,1-0.9v3.3   c-0.3,0.2-0.6,0.3-1,0.5c-0.7,0.3-2.7,1.1-4.9,1.1c-1.3,0-3.9-0.2-6.5-2.4c-1.4-1.2-3.7-3.8-3.7-8.4c0-0.6,0.1-2.2,0.6-3.9   c1.4-4.1,5.1-6.8,9.5-6.8c0.7,0,2.6,0.1,4.6,0.9c0.3,0.1,0.7,0.3,1.1,0.5V19.3z"></path>
	<path class="st1" d="M117.9,36.1l-5.4-9.5h-1.1v9.5h-2.7V15.3h4.4c0.5,0,1.1,0,1.6,0c1.8,0.1,3.5,0.6,4.6,2.1c0.4,0.6,1,1.6,1,3.3   c0,0.6-0.1,2.4-1.3,3.8c-0.3,0.3-0.6,0.7-1.4,1.1c-1,0.5-2.1,0.6-2.4,0.7l5.7,9.7H117.9z M112.7,24.3c1.7,0,2.8-0.2,3.5-0.6   c0.6-0.3,1.4-1.2,1.4-2.8c0-0.7-0.1-1.3-0.5-1.9c-0.9-1.3-2.3-1.3-3.7-1.4h-2.1v6.7H112.7z"></path>
	<path class="st1" d="M147.7,36.1l-2.5-6h-7.8l-2.5,6h-2.8l9.1-21.3h0.2l9,21.3H147.7z M142.7,24.3c-0.4-1.2-0.9-2.4-1.4-3.6   c-0.3,0.7-0.6,1.4-0.8,2l-2.2,5.2h5.9L142.7,24.3z"></path>
	<path class="st1" d="M167.9,36.6l-8.2-21.3h2.9l3.7,9.6c0.4,1.1,0.8,2.2,1.2,3.3c0.3,0.9,0.6,1.8,0.8,2.7c0.2-0.6,0.4-1.3,0.6-1.9   c0.2-0.7,0.5-1.4,0.8-2.1l4.5-11.6h2.7l-8.4,21.3H167.9z"></path>
	<polygon class="st1" points="189.6,36.1 189.6,15.3 200.4,15.3 200.4,17.8 192.2,17.8 192.2,23.6 200.4,23.6 200.4,26 192.2,26    192.2,33.7 200.5,33.7 200.5,36.1  "></polygon>
</g>
</svg>
