<?xml version="1.0" encoding="UTF-8"?>
<!-- Generator: Adobe Illustrator 27.2.0, SVG Export Plug-In . SVG Version: 6.00 Build 0)  -->
<svg xmlns="http://www.w3.org/2000/svg" xmlns:xlink="http://www.w3.org/1999/xlink" version="1.1" id="Layer_1" x="0px" y="0px" viewBox="0 0 49.1 52.9" style="enable-background:new 0 0 49.1 52.9;" xml:space="preserve">
<style type="text/css">
	.st0{fill-rule:evenodd;clip-rule:evenodd;fill:#FFFFFF;}
</style>
<path class="st0" d="M46.3,43.5c-1-1.4-1.6-3-2.2-4.7c-1.1-3.3-1.6-7-3.5-10c-1-1.5-2.2-2.1-2.9-3.7c2.8-1,2.5-5.4-0.8-5.5  c2.7,0.1,7.9,0.1,9.9-2.2c1.5-1.7,1-5.3-0.1-7.1c-1.2-2.1-4.6-2.6-6.7-2.8c-6.3-0.7-12.8,0.9-19-0.5C21.7,1,32,2.5,36.9,3.7  c1.9,0.5,3.9,2.4,5,0.8c-5.5-3.9-19.8-7.5-25.1-0.8c-2.9,3.6-3.9,12.3,0.3,16c-0.5,2.4,0.8,2.5,1.1,3.7c-0.2-0.7-0.9,1.3,0,1.3  C11.6,25.2,4.3,24.9,0,27.6c1.1,8.3,2,16.8,9.4,18.9c-4.4,2.9,1.4,5.1,4.4,5.8c7.7,1.8,13.9,0.5,22-0.3c3.4-0.3,8.7,0.2,11.6-1.8  C51.1,47.7,47.8,45.7,46.3,43.5 M21,19.2c4.7,1,9.2,3.7,11,6.8c-3.4-0.9-7.5-1.2-12-1C19.4,22.2,21.4,21.9,21,19.2 M2.5,27.9  c0-1,6.5-1.8,14.5-1.8c0.5,0,0.9,0,1.3,0v3.6c-0.4,0-0.9,0-1.3,0C9,29.7,2.5,28.9,2.5,27.9 M19.4,29.7v-3.6  c6.9,0.1,12.1,0.9,12.1,1.8C31.5,28.8,26.3,29.5,19.4,29.7 M29.9,43c2.7-3.4,3.4-8.8,3.9-14.4c0.4,0,0.7-0.2,0.8-0.5  C38,32.1,38,44,29.9,43 M35.4,20.8c1.3,0,2.3,0.3,3.1,0.8C38.9,25.7,34.4,24.6,35.4,20.8"></path>
</svg>
